<svg width="17" height="17" viewBox="0 0 17 17" fill="none" xmlns="http://www.w3.org/2000/svg">
<path d="M12.3983 0H4.60175C2.0643 0 0 2.0643 0 4.60175V12.3984C0 14.9357 2.0643 17 4.60175 17H12.3984C14.9357 17 17 14.9357 17 12.3984V4.60175C17 2.0643 14.9357 0 12.3983 0V0ZM16.0034 12.3984C16.0034 14.3862 14.3862 16.0034 12.3983 16.0034H4.60175C2.61384 16.0034 0.996613 14.3862 0.996613 12.3984V4.60175C0.996613 2.61384 2.61384 0.996613 4.60175 0.996613H12.3984C14.3862 0.996613 16.0034 2.61384 16.0034 4.60175V12.3984Z" fill="#E6B141"/>
<path d="M8.49999 3.85156C5.93687 3.85156 3.85168 5.93674 3.85168 8.49987C3.85168 11.063 5.93687 13.1482 8.49999 13.1482C11.0631 13.1482 13.1483 11.063 13.1483 8.49987C13.1483 5.93674 11.0631 3.85156 8.49999 3.85156ZM8.49999 12.1516C6.48653 12.1516 4.8483 10.5135 4.8483 8.49987C4.8483 6.48641 6.48653 4.84818 8.49999 4.84818C10.5136 4.84818 12.1517 6.48641 12.1517 8.49987C12.1517 10.5135 10.5136 12.1516 8.49999 12.1516Z" fill="#E6B141"/>
<path d="M13.2595 2.20093C12.502 2.20093 11.8859 2.81713 11.8859 3.57445C11.8859 4.33189 12.502 4.9481 13.2595 4.9481C14.0169 4.9481 14.6331 4.33189 14.6331 3.57445C14.6331 2.817 14.0169 2.20093 13.2595 2.20093ZM13.2595 3.95136C13.0517 3.95136 12.8826 3.78223 12.8826 3.57445C12.8826 3.36654 13.0517 3.19754 13.2595 3.19754C13.4674 3.19754 13.6365 3.36654 13.6365 3.57445C13.6365 3.78223 13.4674 3.95136 13.2595 3.95136Z" fill="#E6B141"/>
</svg>
