<svg width="17" height="17" viewBox="0 0 17 17" fill="none" xmlns="http://www.w3.org/2000/svg">
<g clip-path="url(#clip0)">
<path d="M3.86257 5.65554H0.210258V16.6235H3.86257V5.65554Z" fill="#E6B141"/>
<path d="M15.8489 6.65736C15.0817 5.81987 14.067 5.40105 12.8054 5.40105C12.3405 5.40105 11.918 5.45823 11.5379 5.57266C11.158 5.68702 10.8371 5.84747 10.5751 6.05409C10.3132 6.26071 10.1047 6.45252 9.94984 6.62952C9.8026 6.79765 9.65863 6.99349 9.51814 7.21504V5.65543H5.87672L5.88789 6.18675C5.89537 6.54102 5.89905 7.63297 5.89905 9.46273C5.89905 11.2926 5.89169 13.6795 5.87688 16.6235H9.51814V10.503C9.51814 10.1268 9.5585 9.82802 9.63983 9.60647C9.79489 9.22998 10.0289 8.91478 10.3427 8.66033C10.6564 8.40556 11.0455 8.27829 11.5105 8.27829C12.1448 8.27829 12.6117 8.49778 12.9106 8.9368C13.2093 9.37578 13.3587 9.98269 13.3587 10.7575V16.6232H17V10.3372C16.9997 8.72111 16.6164 7.49457 15.8489 6.65736Z" fill="#E6B141"/>
<path d="M2.05856 0.376221C1.44622 0.376221 0.950061 0.555278 0.569967 0.913043C0.189911 1.27089 0 1.72266 0 2.26878C0 2.80727 0.184446 3.25749 0.553375 3.61894C0.922189 3.98043 1.40924 4.16127 2.01425 4.16127H2.03638C2.65624 4.16127 3.1562 3.98058 3.53614 3.61894C3.91608 3.25749 4.10234 2.80743 4.09502 2.26878C4.08765 1.7227 3.89937 1.27089 3.53055 0.913043C3.16178 0.555123 2.67093 0.376221 2.05856 0.376221Z" fill="#E6B141"/>
</g>
<defs>
<clipPath id="clip0">
<rect width="17" height="17" fill="white"/>
</clipPath>
</defs>
</svg>
