<svg width="143" height="42" viewBox="0 0 143 42" fill="none" xmlns="http://www.w3.org/2000/svg">
<g clip-path="url(#clip0)">
<path d="M48.9864 17.3658C48.0633 16.3127 46.7914 15.7758 45.1709 15.7758C43.5708 15.7758 42.2579 16.3127 41.2733 17.3658C40.5553 18.1505 40.0425 19.1623 39.7553 20.4218C39.6322 20.9794 39.7553 21.5369 40.104 21.9912C40.4527 22.4454 40.9861 22.6932 41.5605 22.6932H48.5146C49.0479 22.6932 49.5607 22.4454 49.93 22.0325C50.2787 21.6195 50.4428 21.062 50.3403 20.5044C50.1146 19.2036 49.6633 18.1505 48.9864 17.3658ZM41.5605 20.8555C41.7861 19.9263 42.1349 19.1829 42.6272 18.646C43.2426 17.9646 44.0836 17.6342 45.1709 17.6342C46.2376 17.6342 47.0376 17.944 47.5915 18.5841C48.0427 19.1003 48.3505 19.8643 48.5146 20.8142L41.5605 20.8555Z" fill="white"/>
<path d="M126.24 16.2301C123.451 16.2301 120.148 17.5516 120.148 23.8289C120.148 30.1062 123.471 31.4277 126.24 31.4277C129.03 31.4277 132.333 30.1062 132.333 23.8289C132.333 21.3717 131.82 19.4926 130.794 18.233C129.707 16.9115 128.169 16.2301 126.24 16.2301ZM126.24 29.5693C124.415 29.5693 121.994 28.9705 121.994 23.8289C121.994 18.6873 124.415 18.0885 126.24 18.0885C127.615 18.0885 128.64 18.5221 129.358 19.41C130.117 20.3392 130.487 21.8259 130.487 23.8289C130.466 28.9911 128.046 29.5693 126.24 29.5693Z" fill="white"/>
<path d="M137.749 16.9735C136.662 15.0118 135.103 13.4838 133.093 12.41C131.123 11.3569 128.805 10.8407 126.221 10.8407C123.636 10.8407 121.318 11.3776 119.349 12.41C117.338 13.4631 115.779 15.0118 114.692 16.9735C114.384 17.5516 114.118 18.1504 113.892 18.7699V15.9204C113.892 13.4425 111.882 11.4189 109.42 11.4189C106.958 11.4189 104.948 13.4425 104.948 15.9204V29.4041C104.128 28 102.63 27.0708 100.907 27.0708H100.804C99.4299 27.0708 98.1991 27.6696 97.3375 28.6195C97.317 26.5752 96.6811 24.9027 95.4503 23.6844C94.24 22.4661 92.3938 21.5782 89.8501 21L85.973 20.1121C84.9063 19.823 84.496 19.5752 84.3319 19.472C84.2088 19.3894 84.1473 19.2861 84.1473 19.0383C84.1473 18.6667 84.2909 18.4395 84.6396 18.233C85.1114 17.944 85.8294 17.7994 86.7525 17.7994C88.2295 17.7994 89.7475 18.1711 91.2655 18.8938C92.1271 19.3068 93.0707 19.3274 93.9733 18.9971C94.8554 18.646 95.5734 17.9233 95.9426 17.0354C96.599 15.3628 95.8811 13.4218 94.281 12.6372C93.5425 12.2655 92.7425 11.9351 91.9219 11.6873C90.2603 11.1504 88.5372 10.882 86.7935 10.882C84.7422 10.882 82.8755 11.233 81.2549 11.8938C79.901 12.4513 78.7933 13.1947 77.9112 14.1239C77.8086 13.8555 77.6855 13.6077 77.5214 13.3599C76.7624 12.1829 75.4906 11.5015 74.0957 11.5015C72.4341 11.5015 70.9571 12.4926 70.3212 14.0413L65.9723 24.6962L61.8285 14.2065C61.1721 12.5546 59.6131 11.5015 57.8489 11.5015C56.413 11.5015 55.0591 12.2242 54.2796 13.4425C54.0129 13.8761 53.8078 14.3304 53.7052 14.8053C53.5821 14.6608 53.459 14.4956 53.3359 14.351C51.2641 12.0383 48.4537 10.882 44.9664 10.882C42.6073 10.882 40.4739 11.4395 38.6277 12.5546C37.8072 13.0501 37.0482 13.6283 36.3917 14.2891C36.043 13.174 35.5917 12.1003 35.0584 11.1298C33.5198 8.34218 31.2634 6.19469 28.3709 4.70796C25.499 3.22124 22.0528 2.47787 18.1347 2.47787H4.5547C4.04186 2.47787 3.63159 2.89085 3.63159 3.40708C3.63159 3.9233 4.04186 4.33628 4.5547 4.33628H18.1347C21.7656 4.33628 24.9247 5.0177 27.5299 6.33923C30.0941 7.64012 32.0839 9.53982 33.4378 11.997C34.8122 14.4749 35.5097 17.4897 35.5097 20.9794C35.5097 24.469 34.8122 27.5044 33.4583 29.9823C32.1249 32.4395 30.1351 34.3599 27.5914 35.6608C24.9862 36.9823 21.8066 37.6637 18.1347 37.6637H4.5547C4.04186 37.6637 3.63159 38.0767 3.63159 38.5929C3.63159 39.1091 4.04186 39.5221 4.5547 39.5221H18.1347C22.0938 39.5221 25.5606 38.7788 28.412 37.3333C31.0992 35.9705 33.2327 33.9882 34.7301 31.4897C35.1814 32.1711 35.7148 32.8112 36.3097 33.41C38.7098 35.7227 42.033 36.8997 46.1357 36.8997C47.8588 36.8997 49.582 36.6313 51.2641 36.0944C52.0436 35.8466 52.7616 35.5575 53.4385 35.2478C55.0796 34.4425 55.8386 32.4808 55.1822 30.767C54.8334 29.8791 54.1565 29.1976 53.2949 28.826C52.4128 28.4543 51.4282 28.4543 50.5256 28.826C50.2589 28.9292 49.9922 29.0325 49.7256 29.1357C48.6588 29.4867 47.5511 29.6726 46.4639 29.6726C44.8844 29.6726 43.6741 29.3215 42.8535 28.6401C42.2381 28.1239 41.8073 27.3186 41.5406 26.2448H53.7462C55.2232 26.2448 56.413 25.0472 56.413 23.5605C56.413 23.4366 56.413 23.3127 56.413 23.1888L60.7208 33.1622C61.6029 35.1858 63.5927 36.5074 65.7877 36.5074C67.9826 36.5074 69.9519 35.2065 70.8545 33.1829L76.1265 21.1445C76.4137 22.3215 76.947 23.3333 77.7471 24.1386C78.9163 25.3156 80.7215 26.1829 83.1011 26.7404L86.8756 27.587C88.2295 27.8761 88.7218 28.1445 88.8859 28.2684C89.0295 28.3717 89.1526 28.5162 89.1526 28.8466C89.1526 29.0531 89.0911 29.3009 88.7013 29.528C88.2295 29.7965 87.532 29.941 86.6089 29.941C85.173 29.941 83.737 29.7139 82.3216 29.2802C81.7677 29.115 81.2139 28.9086 80.701 28.6814C79.7984 28.2891 78.8138 28.2684 77.9112 28.6608C77.0086 29.0324 76.3111 29.7552 75.9624 30.6844C75.2854 32.4602 76.106 34.4631 77.8496 35.2271C78.6292 35.5782 79.4702 35.8879 80.3523 36.115C82.1985 36.6313 84.2499 36.8791 86.4448 36.8791C89.727 36.8791 92.3732 36.177 94.3015 34.7935C95.1015 34.2153 95.7375 33.5546 96.2298 32.7906C96.6811 34.9174 98.5683 36.5074 100.804 36.5074H100.907C102.856 36.5074 104.538 35.2891 105.235 33.5752C105.871 35.2891 107.512 36.5074 109.42 36.5074C111.882 36.5074 113.892 34.4838 113.892 32.0059V28.9086C114.118 29.528 114.384 30.1475 114.692 30.705C115.779 32.6667 117.338 34.2153 119.349 35.2891C121.318 36.3422 123.636 36.8791 126.221 36.8791C128.805 36.8791 131.123 36.3422 133.093 35.2891C135.082 34.2153 136.662 32.6667 137.749 30.705C138.816 28.764 139.37 26.4513 139.37 23.8496C139.37 21.2271 138.836 18.9145 137.749 16.9735ZM53.7667 24.3658H39.4277L39.5508 25.3982C39.797 27.4838 40.515 29.0531 41.6842 30.0442C42.833 31.0148 44.4536 31.5103 46.4844 31.5103C47.7768 31.5103 49.0691 31.3038 50.3204 30.8702C50.6282 30.767 50.9564 30.6431 51.2641 30.5192C51.6949 30.3333 52.1667 30.3333 52.5975 30.5192C53.0077 30.6844 53.3154 31.0147 53.4795 31.4277C53.7872 32.233 53.4385 33.1622 52.659 33.5339C52.0641 33.823 51.4282 34.0708 50.7512 34.2773C49.2332 34.7522 47.6947 35 46.1562 35C42.5458 35 39.6534 33.9882 37.602 32.0266C36.8225 31.2832 36.2071 30.4366 35.7353 29.5074C36.802 27.0295 37.3559 24.1593 37.3559 20.9587C37.3559 19.3687 37.2123 17.8407 36.9456 16.4159C37.6841 15.4867 38.5662 14.7021 39.5919 14.1032C41.1714 13.174 42.9766 12.6991 44.9869 12.6991C47.9614 12.6991 50.2589 13.6283 51.982 15.5693C53.7052 17.4897 54.5873 20.174 54.5873 23.5605C54.5873 24.0147 54.218 24.3658 53.7667 24.3658ZM69.1724 32.4395C68.5775 33.7817 67.2646 34.649 65.8082 34.649C64.3517 34.649 63.0183 33.7817 62.444 32.4189L55.6745 16.7463C55.3463 15.9823 55.4078 15.1357 55.8796 14.4336C56.3309 13.7316 57.0694 13.3392 57.9105 13.3392C58.9156 13.3392 59.7977 13.9381 60.167 14.8673L64.5158 25.8938C64.762 26.5133 65.3569 26.9263 66.0133 26.9263C66.6697 26.9263 67.2646 26.5339 67.5108 25.9145L72.0648 14.7227C72.4135 13.8761 73.2136 13.3392 74.1162 13.3392C74.8752 13.3392 75.5726 13.7109 75.9829 14.351C76.3932 14.9912 76.4752 15.7758 76.147 16.4779L69.1724 32.4395ZM93.2348 33.2861C91.6348 34.4425 89.3577 35.0207 86.4653 35.0207C84.4345 35.0207 82.5472 34.7935 80.8651 34.3186C80.0651 34.0914 79.3061 33.823 78.6292 33.5133C77.7881 33.1416 77.3983 32.1711 77.7266 31.3245C77.8907 30.8909 78.2189 30.5398 78.6497 30.354C79.0805 30.1681 79.5523 30.1681 79.983 30.3746C80.5574 30.6224 81.1728 30.8702 81.7882 31.056C83.3678 31.5516 85.0089 31.7994 86.6294 31.7994C87.9013 31.7994 88.9064 31.5723 89.6655 31.118C90.7937 30.4366 91.0399 29.5074 91.0399 28.826C91.0399 27.9587 90.6911 27.236 90.0347 26.7611C89.5013 26.3481 88.6193 26.0383 87.3064 25.7493L83.5524 24.9027C81.5216 24.4484 80.0036 23.7463 79.101 22.8171C78.2189 21.9292 77.8086 20.7316 77.8086 19.1416C77.8086 17.882 78.1573 16.8289 78.8753 15.8791C79.5933 14.9086 80.66 14.1445 82.0139 13.587C83.4088 13.0089 85.0499 12.7198 86.8551 12.7198C88.4141 12.7198 89.9526 12.9676 91.4091 13.4218C92.1476 13.649 92.845 13.9381 93.5015 14.2684C94.24 14.6401 94.5682 15.528 94.2605 16.3127C94.0964 16.7257 93.7682 17.056 93.3374 17.2212C92.9271 17.3864 92.4963 17.3658 92.1066 17.1799C90.3424 16.3333 88.5372 15.8997 86.7935 15.8997C85.5217 15.8997 84.5165 16.1268 83.737 16.6018C82.8344 17.1593 82.3421 17.9853 82.3421 19.0177C82.3421 19.823 82.6703 20.4838 83.2857 20.9381C83.7575 21.2891 84.5165 21.6195 85.5833 21.8879L89.5219 22.7965C91.6963 23.292 93.2758 24.0354 94.2195 24.9853C95.122 25.8938 95.5733 27.1327 95.5733 28.7434C95.5118 30.705 94.7733 32.1711 93.2348 33.2861ZM100.907 34.649H100.804C99.2453 34.649 97.9734 33.3687 97.9734 31.7994C97.9734 30.2301 99.2453 28.9499 100.804 28.9499H100.907C102.466 28.9499 103.738 30.2301 103.738 31.7994C103.758 33.3687 102.486 34.649 100.907 34.649ZM112.046 32.0059C112.046 33.4513 110.876 34.649 109.42 34.649C107.964 34.649 106.794 33.472 106.794 32.0059V15.9204C106.794 14.4749 107.964 13.2773 109.42 13.2773C110.876 13.2773 112.046 14.4543 112.046 15.9204V32.0059ZM136.129 29.7965C135.226 31.4484 133.913 32.7286 132.231 33.6372C130.528 34.5457 128.498 35.0207 126.221 35.0207C123.944 35.0207 121.913 34.5664 120.21 33.6372C118.528 32.7286 117.215 31.4484 116.313 29.7965C115.389 28.1239 114.918 26.1209 114.918 23.8496C114.918 21.5575 115.389 19.5546 116.313 17.9027C117.215 16.2507 118.528 14.9705 120.21 14.0826C121.913 13.174 123.944 12.7198 126.221 12.7198C128.498 12.7198 130.528 13.174 132.231 14.0826C133.913 14.9705 135.226 16.2507 136.129 17.9027C137.052 19.5752 137.524 21.5782 137.524 23.8496C137.524 26.1209 137.052 28.1239 136.129 29.7965Z" fill="white"/>
<path d="M9.33371 27.6902V14.8879C9.33371 14.3717 8.92344 13.9587 8.4106 13.9587C7.89776 13.9587 7.48749 14.3717 7.48749 14.8879V27.6902C7.48749 28.2065 7.89776 28.6194 8.4106 28.6194C8.92344 28.6194 9.33371 28.2065 9.33371 27.6902Z" fill="white"/>
<path d="M4.554 25.5428C5.06684 25.5428 5.47711 25.1298 5.47711 24.6136V18.0059C5.47711 17.4897 5.06684 17.0767 4.554 17.0767C4.04116 17.0767 3.63089 17.4897 3.63089 18.0059V24.6136C3.61038 25.1298 4.04116 25.5428 4.554 25.5428Z" fill="white"/>
<path d="M17.5801 33.2242C25.4778 33.2242 29.6626 28.9912 29.6626 20.9587C29.6626 12.9675 25.4778 8.75516 17.5801 8.75516H12.2876C11.7748 8.75516 11.3645 9.16814 11.3645 9.68436V32.295C11.3645 32.8112 11.7748 33.2242 12.2876 33.2242H17.5801ZM13.2107 10.6342H17.5801C24.4521 10.6342 27.8164 14.0206 27.8164 20.9793C27.8164 27.9794 24.4727 31.3658 17.5801 31.3658H13.2107V10.6342Z" fill="white"/>
<path d="M100.865 34.6283C102.429 34.6283 103.696 33.3525 103.696 31.7788C103.696 30.205 102.429 28.9292 100.865 28.9292C99.3017 28.9292 98.0343 30.205 98.0343 31.7788C98.0343 33.3525 99.3017 34.6283 100.865 34.6283Z" fill="#E6B141"/>
</g>
<defs>
<clipPath id="clip0">
<rect width="143" height="42" fill="white"/>
</clipPath>
</defs>
</svg>
