<svg width="616" height="500" viewBox="0 0 616 500" fill="none" xmlns="http://www.w3.org/2000/svg">
<g clip-path="url(#clip0)">
<path d="M493.54 500C555.247 500 605.271 488.772 605.271 474.921C605.271 461.07 555.247 449.841 493.54 449.841C431.833 449.841 381.809 461.07 381.809 474.921C381.809 488.772 431.833 500 493.54 500Z" fill="#E6B141"/>
<path d="M503.899 492.624C565.606 492.624 615.63 481.395 615.63 467.544C615.63 453.693 565.606 442.465 503.899 442.465C442.192 442.465 392.168 453.693 392.168 467.544C392.168 481.395 442.192 492.624 503.899 492.624Z" stroke="#3F3D56" stroke-miterlimit="10"/>
<path d="M322.984 246.623C335.244 246.623 345.182 236.716 345.182 224.494C345.182 212.273 335.244 202.365 322.984 202.365C310.724 202.365 300.786 212.273 300.786 224.494C300.786 236.716 310.724 246.623 322.984 246.623Z" fill="#E6B141"/>
<path d="M412.517 246.623C424.776 246.623 434.715 236.716 434.715 224.494C434.715 212.273 424.776 202.365 412.517 202.365C400.257 202.365 390.318 212.273 390.318 224.494C390.318 236.716 400.257 246.623 412.517 246.623Z" fill="#E6B141"/>
<path d="M502.049 246.623C514.309 246.623 524.247 236.716 524.247 224.494C524.247 212.273 514.309 202.365 502.049 202.365C489.79 202.365 479.851 212.273 479.851 224.494C479.851 236.716 489.79 246.623 502.049 246.623Z" fill="#E6B141"/>
<path d="M9.24925 17.2197C10.4752 17.2197 11.4691 16.229 11.4691 15.0068C11.4691 13.7847 10.4752 12.7939 9.24925 12.7939C8.02328 12.7939 7.02943 13.7847 7.02943 15.0068C7.02943 16.229 8.02328 17.2197 9.24925 17.2197Z" fill="#F86B75"/>
<path d="M15.9087 17.2197C17.1347 17.2197 18.1285 16.229 18.1285 15.0068C18.1285 13.7847 17.1347 12.7939 15.9087 12.7939C14.6827 12.7939 13.6889 13.7847 13.6889 15.0068C13.6889 16.229 14.6827 17.2197 15.9087 17.2197Z" fill="#FAD375"/>
<path d="M22.5682 17.2197C23.7941 17.2197 24.788 16.229 24.788 15.0068C24.788 13.7847 23.7941 12.7939 22.5682 12.7939C21.3422 12.7939 20.3483 13.7847 20.3483 15.0068C20.3483 16.229 21.3422 17.2197 22.5682 17.2197Z" fill="#8BCC55"/>
<path d="M202.004 49.3067H49.576V96.5152H202.004V49.3067Z" fill="#E6B141"/>
<path d="M269.708 7.63052H0.36997V166.959H269.708V7.63052Z" stroke="#3F3D56" stroke-miterlimit="10"/>
<path d="M0.36997 19.6969H269.708" stroke="#3F3D56" stroke-miterlimit="10"/>
<path d="M9.98919 15.7445C11.2152 15.7445 12.209 14.7537 12.209 13.5316C12.209 12.3094 11.2152 11.3187 9.98919 11.3187C8.76322 11.3187 7.76937 12.3094 7.76937 13.5316C7.76937 14.7537 8.76322 15.7445 9.98919 15.7445Z" stroke="#3F3D56" stroke-miterlimit="10"/>
<path d="M16.6486 15.7445C17.8746 15.7445 18.8685 14.7537 18.8685 13.5316C18.8685 12.3094 17.8746 11.3187 16.6486 11.3187C15.4227 11.3187 14.4288 12.3094 14.4288 13.5316C14.4288 14.7537 15.4227 15.7445 16.6486 15.7445Z" stroke="#3F3D56" stroke-miterlimit="10"/>
<path d="M23.3081 15.7445C24.5341 15.7445 25.5279 14.7537 25.5279 13.5316C25.5279 12.3094 24.5341 11.3187 23.3081 11.3187C22.0821 11.3187 21.0883 12.3094 21.0883 13.5316C21.0883 14.7537 22.0821 15.7445 23.3081 15.7445Z" stroke="#3F3D56" stroke-miterlimit="10"/>
<path d="M211.253 40.0863H58.8252V87.2948H211.253V40.0863Z" stroke="#3F3D56" stroke-miterlimit="10"/>
<path d="M234.561 117.169H30.3375V123.273H234.561V117.169Z" fill="#F2F2F2"/>
<path d="M234.561 131.82H30.3375V137.924H234.561V131.82Z" fill="#F2F2F2"/>
<path d="M234.561 146.471H30.3375V152.575H234.561V146.471Z" fill="#F2F2F2"/>
<path d="M236.781 114.218H32.5574V120.323H236.781V114.218Z" stroke="#3F3D56" stroke-miterlimit="10"/>
<path d="M236.781 128.869H32.5574V134.974H236.781V128.869Z" stroke="#3F3D56" stroke-miterlimit="10"/>
<path d="M236.781 143.52H32.5574V149.625H236.781V143.52Z" stroke="#3F3D56" stroke-miterlimit="10"/>
<path d="M71.4042 293.094C72.6302 293.094 73.624 292.103 73.624 290.881C73.624 289.659 72.6302 288.668 71.4042 288.668C70.1782 288.668 69.1844 289.659 69.1844 290.881C69.1844 292.103 70.1782 293.094 71.4042 293.094Z" fill="#F86B75"/>
<path d="M78.0637 293.094C79.2896 293.094 80.2835 292.103 80.2835 290.881C80.2835 289.659 79.2896 288.668 78.0637 288.668C76.8377 288.668 75.8438 289.659 75.8438 290.881C75.8438 292.103 76.8377 293.094 78.0637 293.094Z" fill="#FAD375"/>
<path d="M84.7231 293.094C85.9491 293.094 86.9429 292.103 86.9429 290.881C86.9429 289.659 85.9491 288.668 84.7231 288.668C83.4971 288.668 82.5033 289.659 82.5033 290.881C82.5033 292.103 83.4971 293.094 84.7231 293.094Z" fill="#8BCC55"/>
<path d="M264.159 325.181H111.731V372.39H264.159V325.181Z" fill="#E6B141"/>
<path d="M331.863 315.961V442.834H62.5249V283.505H281.547" stroke="#3F3D56" stroke-miterlimit="10"/>
<path d="M62.5249 295.571H281.917" stroke="#3F3D56" stroke-miterlimit="10"/>
<path d="M72.1441 291.619C73.3701 291.619 74.364 290.628 74.364 289.406C74.364 288.184 73.3701 287.193 72.1441 287.193C70.9182 287.193 69.9243 288.184 69.9243 289.406C69.9243 290.628 70.9182 291.619 72.1441 291.619Z" stroke="#3F3D56" stroke-miterlimit="10"/>
<path d="M78.8036 291.619C80.0296 291.619 81.0234 290.628 81.0234 289.406C81.0234 288.184 80.0296 287.193 78.8036 287.193C77.5776 287.193 76.5838 288.184 76.5838 289.406C76.5838 290.628 77.5776 291.619 78.8036 291.619Z" stroke="#3F3D56" stroke-miterlimit="10"/>
<path d="M85.4631 291.619C86.689 291.619 87.6829 290.628 87.6829 289.406C87.6829 288.184 86.689 287.193 85.4631 287.193C84.2371 287.193 83.2432 288.184 83.2432 289.406C83.2432 290.628 84.2371 291.619 85.4631 291.619Z" stroke="#3F3D56" stroke-miterlimit="10"/>
<path d="M273.408 315.961H120.98V363.169H273.408V315.961Z" stroke="#3F3D56" stroke-miterlimit="10"/>
<path d="M290.426 165.484C291.652 165.484 292.646 164.493 292.646 163.271C292.646 162.049 291.652 161.058 290.426 161.058C289.2 161.058 288.207 162.049 288.207 163.271C288.207 164.493 289.2 165.484 290.426 165.484Z" fill="#F86B75"/>
<path d="M297.086 165.484C298.312 165.484 299.306 164.493 299.306 163.271C299.306 162.049 298.312 161.058 297.086 161.058C295.86 161.058 294.866 162.049 294.866 163.271C294.866 164.493 295.86 165.484 297.086 165.484Z" fill="#FAD375"/>
<path d="M303.745 165.484C304.971 165.484 305.965 164.493 305.965 163.271C305.965 162.049 304.971 161.058 303.745 161.058C302.519 161.058 301.526 162.049 301.526 163.271C301.526 164.493 302.519 165.484 303.745 165.484Z" fill="#8BCC55"/>
<path d="M550.885 155.895H281.547V315.223H550.885V155.895Z" stroke="#3F3D56" stroke-miterlimit="10"/>
<path d="M281.547 167.961H550.885" stroke="#3F3D56" stroke-miterlimit="10"/>
<path d="M291.166 164.009C292.392 164.009 293.386 163.018 293.386 161.796C293.386 160.573 292.392 159.583 291.166 159.583C289.94 159.583 288.947 160.573 288.947 161.796C288.947 163.018 289.94 164.009 291.166 164.009Z" stroke="#3F3D56" stroke-miterlimit="10"/>
<path d="M297.826 164.009C299.052 164.009 300.046 163.018 300.046 161.796C300.046 160.573 299.052 159.583 297.826 159.583C296.6 159.583 295.606 160.573 295.606 161.796C295.606 163.018 296.6 164.009 297.826 164.009Z" stroke="#3F3D56" stroke-miterlimit="10"/>
<path d="M304.485 164.009C305.711 164.009 306.705 163.018 306.705 161.796C306.705 160.573 305.711 159.583 304.485 159.583C303.259 159.583 302.265 160.573 302.265 161.796C302.265 163.018 303.259 164.009 304.485 164.009Z" stroke="#3F3D56" stroke-miterlimit="10"/>
<path d="M326.683 242.935C338.943 242.935 348.882 233.028 348.882 220.806C348.882 208.585 338.943 198.677 326.683 198.677C314.424 198.677 304.485 208.585 304.485 220.806C304.485 233.028 314.424 242.935 326.683 242.935Z" stroke="#3F3D56" stroke-miterlimit="10"/>
<path d="M416.216 242.935C428.476 242.935 438.414 233.028 438.414 220.806C438.414 208.585 428.476 198.677 416.216 198.677C403.956 198.677 394.018 208.585 394.018 220.806C394.018 233.028 403.956 242.935 416.216 242.935Z" stroke="#3F3D56" stroke-miterlimit="10"/>
<path d="M505.749 242.935C518.009 242.935 527.947 233.028 527.947 220.806C527.947 208.585 518.009 198.677 505.749 198.677C493.489 198.677 483.551 208.585 483.551 220.806C483.551 233.028 493.489 242.935 505.749 242.935Z" stroke="#3F3D56" stroke-miterlimit="10"/>
<path d="M353.691 261.745H293.016V267.646H353.691V261.745Z" fill="#F2F2F2"/>
<path d="M443.964 261.745H383.289V267.646H443.964V261.745Z" fill="#F2F2F2"/>
<path d="M534.237 261.745H473.562V267.646H534.237V261.745Z" fill="#F2F2F2"/>
<path d="M356.651 259.532H295.976V265.433H356.651V259.532Z" stroke="#3F3D56" stroke-miterlimit="10"/>
<path d="M446.924 259.532H386.249V265.433H446.924V259.532Z" stroke="#3F3D56" stroke-miterlimit="10"/>
<path d="M537.196 259.532H476.521V265.433H537.196V259.532Z" stroke="#3F3D56" stroke-miterlimit="10"/>
<path d="M119.13 390.83H72.5141V430.663H119.13V390.83Z" fill="#F2F2F2"/>
<path d="M205.333 391.199H158.717V431.031H205.333V391.199Z" fill="#F2F2F2"/>
<path d="M291.536 391.568H244.92V431.4H291.536V391.568Z" fill="#F2F2F2"/>
<path d="M125.79 383.454H79.1736V423.286H125.79V383.454Z" stroke="#3F3D56" stroke-miterlimit="10"/>
<path d="M211.993 383.823H165.377V423.655H211.993V383.823Z" stroke="#3F3D56" stroke-miterlimit="10"/>
<path d="M298.196 384.192H251.58V424.024H298.196V384.192Z" stroke="#3F3D56" stroke-miterlimit="10"/>
<path d="M444.546 150.84L423.783 162.308L445.925 154.521L444.546 150.84Z" fill="#79758C"/>
<path d="M453.903 162.123C456.946 161.138 457.799 155.385 455.807 149.274C453.816 143.163 449.735 139.008 446.693 139.993C443.65 140.978 442.797 146.731 444.789 152.842C446.78 158.953 450.86 163.109 453.903 162.123Z" fill="#3F3D56"/>
<path d="M470.901 150C473.197 149.257 473.918 145.156 472.512 140.841C471.106 136.526 468.106 133.631 465.81 134.374C463.515 135.118 462.793 139.218 464.199 143.533C465.605 147.848 468.606 150.743 470.901 150Z" fill="#3F3D56"/>
<path d="M451.633 144.341L465.405 139.384L468.332 147.467L455.003 156.442L451.633 144.341Z" fill="#3F3D56"/>
<path d="M450.316 174.058L454.016 165.944C454.016 165.944 462.895 142.34 454.756 146.766C446.617 151.191 443.657 162.994 443.657 162.994L441.437 170.37L450.316 174.058Z" fill="#A0616A"/>
<path d="M551.688 296.505C551.688 296.505 539.109 320.847 535.409 321.584C531.71 322.322 531.71 299.455 531.71 299.455C531.71 299.455 539.109 292.817 542.069 293.554C545.029 294.292 551.688 296.505 551.688 296.505Z" fill="#A0616A"/>
<path d="M533.19 449.932C533.19 449.932 539.849 453.621 536.889 461.735C533.929 469.849 532.45 467.636 530.97 474.274C529.49 480.913 516.171 480.175 515.431 477.225C514.691 474.274 513.211 462.472 516.911 458.046C520.611 453.621 533.19 449.932 533.19 449.932Z" fill="#55536E"/>
<path d="M467.335 449.932C467.335 449.932 460.675 453.621 463.635 461.735C466.595 469.849 468.075 467.636 469.555 474.274C471.035 480.913 484.354 480.175 485.093 477.225C485.833 474.274 487.313 462.472 483.614 458.046C479.914 453.621 467.335 449.932 467.335 449.932Z" fill="#55536E"/>
<path d="M529.49 302.406C529.49 302.406 535.409 306.094 536.889 328.961C538.369 351.827 536.149 377.645 535.409 383.546C534.669 389.447 536.149 398.298 537.629 402.724C539.109 407.15 533.929 441.081 533.929 441.081C535.021 443.388 535.588 445.907 535.588 448.457C535.588 451.008 535.021 453.527 533.929 455.834C530.23 463.947 519.131 472.061 516.171 463.947C516.016 461.117 515.259 458.351 513.951 455.834C511.731 451.408 515.431 433.705 515.431 433.705C515.431 433.705 512.471 405.675 513.211 398.298C513.951 390.922 504.332 347.402 502.852 340.025C501.372 332.649 502.112 326.748 501.372 328.961C500.632 331.174 487.313 392.397 487.313 392.397C487.313 392.397 488.793 431.492 488.053 436.655C487.313 441.819 491.013 452.145 488.793 455.834C486.573 459.522 482.134 472.799 473.994 464.685C465.855 456.571 467.335 453.621 466.595 449.932C465.855 446.244 466.595 441.819 466.595 435.917C466.595 430.016 460.675 396.823 463.635 391.66C466.595 386.496 465.115 379.857 464.375 368.055C463.635 356.253 462.895 299.455 470.295 289.129C477.694 278.802 529.49 302.406 529.49 302.406Z" fill="#3F3D56"/>
<path d="M511.361 164.1C521.169 164.1 529.12 156.174 529.12 146.397C529.12 136.62 521.169 128.694 511.361 128.694C501.554 128.694 493.603 136.62 493.603 146.397C493.603 156.174 501.554 164.1 511.361 164.1Z" fill="#A0616A"/>
<path d="M522.83 153.404C522.83 153.404 522.09 179.959 525.79 184.385C529.49 188.811 493.973 180.697 493.973 180.697C493.973 180.697 502.112 163.731 496.932 152.667C491.753 141.602 522.83 153.404 522.83 153.404Z" fill="#A0616A"/>
<path d="M529.595 181.08C529.595 181.08 528.115 175.179 519.235 173.703C510.356 172.228 499.856 170.753 496.597 173.703C493.338 176.654 491.858 180.342 489.638 180.342H479.279L463 209.11C463 209.11 471.139 218.699 468.92 236.402C466.7 254.105 463 286.561 463 286.561C468.932 294.434 474.133 302.828 478.539 311.641C485.938 326.393 536.994 324.918 534.034 299.101C534.034 299.101 530.335 292.462 531.814 286.561C533.294 280.66 537.734 240.828 537.734 240.828L554.753 195.832C554.753 195.832 531.074 184.03 529.595 181.08Z" fill="#55536E"/>
<path d="M549.468 195.449H554.648C554.648 195.449 557.608 212.415 556.868 222.742C556.128 233.069 556.128 257.41 556.128 257.41C556.128 257.41 559.087 263.312 558.347 268.475C557.608 273.638 556.128 287.653 556.128 287.653C556.128 287.653 555.388 307.569 541.329 297.243C541.329 297.243 536.889 295.03 539.109 285.44C541.329 275.851 537.629 265.524 537.629 265.524C537.629 265.524 539.849 258.886 539.109 254.46C538.369 250.034 535.409 236.019 535.409 236.019L549.468 195.449Z" fill="#55536E"/>
<path d="M482.874 182.91L479.174 180.697C479.174 180.697 473.994 178.484 466.595 180.697C459.196 182.91 455.496 182.172 452.536 181.434C449.576 180.697 451.796 173.32 451.796 173.32C451.796 173.32 445.877 162.994 439.957 168.895C434.038 174.796 434.038 186.598 434.038 186.598C434.038 186.598 430.338 193.974 443.657 198.4C456.976 202.826 462.895 209.464 462.895 209.464H477.694L482.874 182.91Z" fill="#55536E"/>
<path d="M510.158 167.528C510.135 166.87 509.922 166.233 509.545 165.692C509.167 165.152 508.642 164.732 508.03 164.482C507.214 164.204 506.363 164.037 505.502 163.984C502.982 163.66 500.39 162.739 498.922 160.82C496.968 158.265 497.502 154.691 495.936 151.917C495.207 150.825 494.41 149.78 493.548 148.789C490.815 145.143 490.333 140.487 490.084 136.058C489.962 135.16 490.065 134.246 490.385 133.398C490.854 132.635 491.422 131.937 492.074 131.321C493.177 130.042 493.773 128.404 493.748 126.717C493.668 123.287 498.591 120.982 502.078 119.797C505.565 118.613 509.347 118.424 513.062 118.374C515.198 118.345 517.402 118.37 519.365 119.148C520.494 119.637 521.556 120.267 522.525 121.023C526.64 124.025 530.504 127.716 531.884 132.388C532.426 134.52 532.678 136.715 532.634 138.914C532.7 139.598 532.599 140.287 532.341 140.923C531.847 141.913 530.683 142.449 529.931 143.288C528.526 144.855 528.776 147.123 528.598 149.152C528.37 151.244 527.652 153.253 526.503 155.017C525.353 156.782 523.804 158.253 521.98 159.311C521.222 159.681 520.525 160.162 519.91 160.738C519.447 161.349 519.063 162.016 518.769 162.724C517.288 165.554 513.559 167.428 510.158 167.528Z" fill="#3F3D56"/>
<path d="M142.511 7.87128L132.655 13.3143L143.166 9.61873L142.511 7.87128Z" fill="#79758C"/>
<path d="M146.953 13.2272C148.397 12.7596 148.802 10.0289 147.857 7.12805C146.912 4.22722 144.975 2.25476 143.53 2.72243C142.086 3.19011 141.681 5.92081 142.626 8.82164C143.572 11.7225 145.509 13.6949 146.953 13.2272Z" fill="#3F3D56"/>
<path d="M155.022 7.47253C156.111 7.1197 156.454 5.17326 155.786 3.12504C155.119 1.07682 153.695 -0.297564 152.605 0.0552672C151.515 0.408099 151.173 2.35453 151.84 4.40275C152.508 6.45097 153.932 7.82536 155.022 7.47253Z" fill="#3F3D56"/>
<path d="M145.875 4.78575L152.413 2.43344L153.802 6.26987L147.475 10.5304L145.875 4.78575Z" fill="#3F3D56"/>
<path d="M209.106 282.27L199.25 287.713L209.76 284.018L209.106 282.27Z" fill="#79758C"/>
<path d="M213.548 287.626C214.992 287.159 215.397 284.428 214.451 281.527C213.506 278.626 211.569 276.654 210.125 277.122C208.68 277.589 208.276 280.32 209.221 283.221C210.166 286.122 212.103 288.094 213.548 287.626Z" fill="#3F3D56"/>
<path d="M221.616 281.872C222.706 281.519 223.048 279.572 222.381 277.524C221.714 275.476 220.289 274.102 219.2 274.454C218.11 274.807 217.768 276.754 218.435 278.802C219.102 280.85 220.527 282.225 221.616 281.872Z" fill="#3F3D56"/>
<path d="M212.47 279.185L219.007 276.833L220.397 280.669L214.07 284.93L212.47 279.185Z" fill="#3F3D56"/>
</g>
<defs>
<clipPath id="clip0">
<rect width="616" height="500" fill="white"/>
</clipPath>
</defs>
</svg>
