<svg width="518" height="479" viewBox="0 0 518 479" fill="none" xmlns="http://www.w3.org/2000/svg">
<g clip-path="url(#clip0)">
<path opacity="0.18" d="M69.347 54.0488C87.1185 24.3447 125.734 14.4736 160.388 14.4837C195.041 14.4938 230.139 21.6094 264.034 14.4837C279.673 11.1731 294.765 4.87501 310.717 4.03728C344.602 2.25079 374.302 24.8897 400.565 46.3174L448.602 85.5293C468.062 101.416 488.027 117.908 499.824 140.083C510.11 159.597 513.324 182.061 508.922 203.669C503.383 230.436 486.228 255.78 490.514 282.779C492.667 296.345 500.087 308.416 504.909 321.285C509.757 334.222 511.979 347.994 511.445 361.797C510.912 375.6 507.633 389.159 501.8 401.685C495.967 414.211 487.697 425.453 477.47 434.756C467.244 444.06 455.266 451.24 442.234 455.877C406.004 468.756 366.185 460.842 328.084 455.634C255.492 445.703 181.94 446.167 108.802 441.898C96.1154 441.161 82.62 439.97 72.5819 432.188C58.1363 420.985 55.8921 400.364 55.4776 382.096C54.3757 333.952 57.8633 285.807 62.6751 237.885C66.2133 202.7 64.1207 175.752 53.0616 142.697C45.3283 119.553 56.4076 75.6683 69.347 54.0488Z" fill="#E6B141"/>
<path d="M218.332 73.3064L222.578 80.6744L252.328 67.4524L255.361 72.1457C255.361 72.1457 224.468 102.849 222.618 102.425C220.768 102.001 208.658 80.5432 208.658 80.5432L218.332 73.3064Z" fill="url(#paint0_linear)"/>
<path d="M207.374 45.1365L220.748 71.2878L209.082 81.5222L207.374 45.1365Z" fill="#E6B141"/>
<path opacity="0.69" d="M207.374 45.1365L220.748 71.2878L209.082 81.5222L207.374 45.1365Z" fill="url(#paint1_linear)"/>
<path d="M233.374 94.4111L240.592 45.1365L269.443 44.7529L259.95 94.7947L233.374 94.4111Z" fill="#E6B141"/>
<path d="M314.639 263.774H323.121V202.791C323.121 198.776 324.718 194.925 327.562 192.086C330.406 189.247 334.262 187.652 338.284 187.652H377.86V179.183H338.244C331.985 179.189 325.984 181.674 321.559 186.092C317.133 190.511 314.645 196.502 314.639 202.751V263.774Z" fill="#E6B141"/>
<path d="M314.831 263.774H323.313V202.791C323.313 198.776 324.91 194.925 327.754 192.086C330.598 189.247 334.455 187.652 338.476 187.652H378.063V179.183H338.426C332.169 179.191 326.171 181.677 321.747 186.096C317.324 190.514 314.837 196.504 314.831 202.751V263.774Z" fill="url(#paint2_linear)"/>
<path d="M211.074 134.562H59.6223C40.3331 134.562 24.696 150.174 24.696 169.434V378.008C24.696 397.267 40.3331 412.88 59.6223 412.88H211.074C230.363 412.88 246 397.267 246 378.008V169.434C246 150.174 230.363 134.562 211.074 134.562Z" fill="url(#paint3_linear)"/>
<path d="M234.466 382.661C234.468 381.54 234.916 380.466 235.709 379.674C236.503 378.881 237.579 378.435 238.701 378.432H276.034C280.046 378.419 283.89 376.818 286.723 373.98C289.556 371.142 291.146 367.299 291.146 363.292V323.818H299.638V363.333C299.638 366.428 299.027 369.492 297.841 372.352C296.655 375.211 294.916 377.809 292.724 379.997C290.532 382.186 287.93 383.922 285.066 385.106C282.203 386.291 279.133 386.9 276.034 386.9H238.752C238.191 386.906 237.635 386.8 237.115 386.589C236.595 386.378 236.122 386.067 235.724 385.673C235.325 385.279 235.009 384.81 234.793 384.293C234.577 383.776 234.466 383.221 234.466 382.661Z" fill="#E6B141"/>
<path d="M392.71 396.014V387.546H331.632C327.611 387.546 323.754 385.951 320.91 383.112C318.067 380.272 316.469 376.422 316.469 372.406V332.932H307.988V372.447C307.993 378.696 310.482 384.687 314.907 389.106C319.333 393.524 325.333 396.009 331.592 396.014H392.71Z" fill="#E6B141"/>
<path d="M234.466 382.661C234.468 381.54 234.916 380.466 235.709 379.674C236.503 378.881 237.579 378.435 238.701 378.432H276.034C280.046 378.419 283.89 376.818 286.723 373.98C289.556 371.142 291.146 367.299 291.146 363.292V323.818H299.638V363.333C299.638 366.428 299.027 369.492 297.841 372.352C296.655 375.211 294.916 377.809 292.724 379.997C290.532 382.186 287.93 383.922 285.066 385.106C282.203 386.291 279.133 386.9 276.034 386.9H238.752C238.191 386.906 237.635 386.8 237.115 386.589C236.595 386.378 236.122 386.067 235.724 385.673C235.325 385.279 235.009 384.81 234.793 384.293C234.577 383.776 234.466 383.221 234.466 382.661Z" fill="url(#paint4_linear)"/>
<path d="M392.71 396.014V387.546H331.632C327.611 387.546 323.754 385.951 320.91 383.112C318.067 380.272 316.469 376.422 316.469 372.406V332.932H307.988V372.447C307.993 378.696 310.482 384.687 314.907 389.106C319.333 393.524 325.333 396.009 331.592 396.014H392.71Z" fill="url(#paint5_linear)"/>
<path d="M518 464.698C518.004 466.581 517.636 468.447 516.917 470.188C516.198 471.929 515.142 473.512 513.809 474.845C512.477 476.178 510.894 477.236 509.152 477.957C507.41 478.679 505.542 479.05 503.656 479.05H28.9721C25.4225 479.04 22.0031 477.715 19.3749 475.333C16.7467 472.951 15.0964 469.68 14.7431 466.154C14.3898 462.628 15.3585 459.096 17.462 456.241C19.5656 453.386 22.6544 451.412 26.1315 450.699C27.0669 450.512 28.0183 450.418 28.9721 450.416H503.656C507.453 450.416 511.095 451.92 513.784 454.597C516.473 457.274 517.989 460.907 518 464.698Z" fill="#E6B141"/>
<path d="M216.937 394.712H33.7536V456.735H216.937V394.712Z" fill="#E6B141"/>
<path d="M216.937 394.712H33.7536V440.182H216.937V394.712Z" fill="url(#paint6_linear)"/>
<path d="M186.378 134.562H34.9262C15.637 134.562 0 150.174 0 169.434V378.018C0 397.277 15.637 412.89 34.9262 412.89H186.378C205.667 412.89 221.304 397.277 221.304 378.018V169.434C221.304 150.174 205.667 134.562 186.378 134.562Z" fill="#E6B141"/>
<path d="M221.304 299.322V378.048C221.301 387.296 217.621 396.164 211.071 402.703C204.522 409.243 195.64 412.917 186.378 412.92H34.9262C30.3375 412.919 25.7939 412.015 21.5551 410.26C17.3163 408.505 13.4652 405.934 10.2219 402.693C6.97857 399.452 4.4065 395.604 2.6526 391.371C0.898709 387.137 -0.00264987 382.6 5.85145e-06 378.018V299.292C5.85145e-06 290.043 3.67972 281.173 10.2297 274.634C16.7796 268.094 25.6632 264.42 34.9262 264.42H186.378C190.967 264.42 195.511 265.323 199.75 267.077C203.99 268.832 207.841 271.403 211.085 274.644C214.329 277.886 216.901 281.733 218.654 285.968C220.407 290.202 221.308 294.74 221.304 299.322Z" fill="url(#paint7_linear)"/>
<path d="M355.823 252.48H264.459V338.524H355.823V252.48Z" fill="#435276"/>
<path d="M355.469 240.267H266.369C261.3 240.267 257.191 244.37 257.191 249.432V265.096C257.191 270.158 261.3 274.261 266.369 274.261H355.469C360.539 274.261 364.648 270.158 364.648 265.096V249.432C364.648 244.37 360.539 240.267 355.469 240.267Z" fill="#E6B141"/>
<path d="M355.469 279.57H266.369C261.3 279.57 257.19 283.673 257.19 288.734V304.399C257.19 309.46 261.3 313.563 266.369 313.563H355.469C360.539 313.563 364.648 309.46 364.648 304.399V288.734C364.648 283.673 360.539 279.57 355.469 279.57Z" fill="#E6B141"/>
<path d="M355.469 318.872H266.369C261.3 318.872 257.19 322.976 257.19 328.037V343.702C257.19 348.763 261.3 352.866 266.369 352.866H355.469C360.539 352.866 364.648 348.763 364.648 343.702V328.037C364.648 322.976 360.539 318.872 355.469 318.872Z" fill="#E6B141"/>
<path d="M307.199 240.449H298.718V179.466C298.718 175.451 297.12 171.6 294.277 168.761C291.433 165.921 287.576 164.326 283.555 164.326H238.176C237.05 164.326 235.97 163.88 235.173 163.085C234.377 162.29 233.93 161.211 233.93 160.087C233.933 158.965 234.381 157.889 235.177 157.096C235.973 156.303 237.051 155.858 238.176 155.858H283.595C286.695 155.857 289.765 156.466 292.629 157.649C295.494 158.833 298.097 160.569 300.289 162.758C302.481 164.947 304.219 167.545 305.405 170.405C306.591 173.265 307.201 176.33 307.199 179.426V240.449Z" fill="#E6B141"/>
<path d="M307.199 240.449H298.718V179.466C298.718 175.451 297.12 171.6 294.277 168.761C291.433 165.921 287.576 164.326 283.555 164.326H238.176C237.05 164.326 235.97 163.88 235.173 163.085C234.377 162.29 233.93 161.211 233.93 160.087C233.933 158.965 234.381 157.889 235.177 157.096C235.973 156.303 237.051 155.858 238.176 155.858H283.595C286.695 155.857 289.765 156.466 292.629 157.649C295.494 158.833 298.097 160.569 300.289 162.758C302.481 164.947 304.219 167.545 305.405 170.405C306.591 173.265 307.201 176.33 307.199 179.426V240.449Z" fill="url(#paint8_linear)"/>
<path d="M349.151 260.221C351.144 260.221 352.76 258.608 352.76 256.618C352.76 254.628 351.144 253.015 349.151 253.015C347.158 253.015 345.542 254.628 345.542 256.618C345.542 258.608 347.158 260.221 349.151 260.221Z" fill="url(#paint9_linear)"/>
<path d="M340.094 260.221C342.087 260.221 343.702 258.608 343.702 256.618C343.702 254.628 342.087 253.015 340.094 253.015C338.1 253.015 336.485 254.628 336.485 256.618C336.485 258.608 338.1 260.221 340.094 260.221Z" fill="url(#paint10_linear)"/>
<path d="M331.147 260.221C333.14 260.221 334.756 258.608 334.756 256.618C334.756 254.628 333.14 253.015 331.147 253.015C329.154 253.015 327.538 254.628 327.538 256.618C327.538 258.608 329.154 260.221 331.147 260.221Z" fill="url(#paint11_linear)"/>
<path d="M313.244 92.5339H483.215C485.412 92.5352 487.587 92.1044 489.617 91.266C491.647 90.4277 493.491 89.1982 495.045 87.6479C496.598 86.0976 497.831 84.2568 498.672 82.2307C499.513 80.2046 499.945 78.033 499.945 75.8398C499.945 66.5591 496.253 57.6586 489.68 51.0961C483.108 44.5337 474.193 40.8469 464.898 40.8469H450.564C450.564 31.5689 446.872 22.6709 440.301 16.1104C433.731 9.54981 424.819 5.86414 415.526 5.86414H392.407C387.805 5.86281 383.248 6.76669 378.996 8.52415C374.744 10.2816 370.88 12.8582 367.625 16.1068C364.371 19.3554 361.789 23.2123 360.028 27.4573C358.266 31.7022 357.36 36.2521 357.36 40.8469V48.003H337.819C328.742 48.005 320.02 51.523 313.489 57.8163C306.958 64.1096 303.126 72.6875 302.802 81.7443C302.752 83.1441 302.985 84.5397 303.487 85.8475C303.989 87.1554 304.751 88.3486 305.725 89.3559C306.7 90.3632 307.869 91.1638 309.161 91.7098C310.453 92.2559 311.841 92.5361 313.244 92.5339Z" fill="#E6B141"/>
<path d="M118.972 92.5339H15.8608C14.7807 92.5352 13.7109 92.3239 12.7126 91.9121C11.7144 91.5004 10.8072 90.8961 10.0429 90.134C9.2787 89.3719 8.67242 88.4669 8.25877 87.4707C7.84512 86.4745 7.6322 85.4066 7.6322 84.3282V82.582C7.63219 77.056 9.82808 71.7556 13.7379 67.8443C17.6478 63.933 22.9521 61.7302 28.4869 61.7195H37.0794C37.0794 56.1855 39.2805 50.878 43.1988 46.9639C47.1171 43.0499 52.4319 40.8496 57.9745 40.8469H71.7529C74.4978 40.8469 77.2157 41.3869 79.7515 42.436C82.2872 43.485 84.5911 45.0226 86.5316 46.961C88.472 48.8993 90.0109 51.2004 91.0604 53.7327C92.1099 56.265 92.6494 58.979 92.648 61.7195V65.9788H104.304C109.717 65.9806 114.919 68.0792 118.815 71.8329C122.71 75.5866 124.995 80.7027 125.189 86.1045C125.218 86.9382 125.08 87.7693 124.781 88.5482C124.482 89.3271 124.028 90.0379 123.448 90.638C122.868 91.2381 122.172 91.7153 121.403 92.0411C120.634 92.3668 119.807 92.5344 118.972 92.5339Z" fill="#E6B141"/>
<path d="M183.76 201.217H38.2723C32.5553 201.217 27.9208 205.844 27.9208 211.552C27.9208 217.26 32.5553 221.888 38.2723 221.888H183.76C189.476 221.888 194.111 217.26 194.111 211.552C194.111 205.844 189.476 201.217 183.76 201.217Z" fill="white"/>
<path d="M134.175 205.214H39.2124C35.483 205.214 32.4597 208.232 32.4597 211.956V211.966C32.4597 215.69 35.483 218.708 39.2124 218.708H134.175C137.905 218.708 140.928 215.69 140.928 211.966V211.956C140.928 208.232 137.905 205.214 134.175 205.214Z" fill="#E6B141"/>
<path d="M460.359 134.562H390.021C381.066 134.562 373.807 141.81 373.807 150.751V247.625C373.807 256.566 381.066 263.814 390.021 263.814H460.359C469.314 263.814 476.574 256.566 476.574 247.625V150.751C476.574 141.81 469.314 134.562 460.359 134.562Z" fill="#E6B141"/>
<path d="M460.349 134.562H439.393C430.438 134.562 423.179 141.81 423.179 150.751V247.625C423.179 256.566 430.438 263.814 439.393 263.814H460.349C469.304 263.814 476.564 256.566 476.564 247.625V150.751C476.564 141.81 469.304 134.562 460.349 134.562Z" fill="url(#paint12_linear)"/>
<path d="M476.574 150.761H373.807C373.8 148.636 374.214 146.531 375.023 144.566C375.833 142.601 377.024 140.814 378.526 139.309C380.029 137.804 381.814 136.61 383.78 135.796C385.745 134.981 387.853 134.562 389.981 134.562H460.309C462.444 134.55 464.562 134.96 466.538 135.77C468.514 136.579 470.31 137.771 471.822 139.277C473.334 140.783 474.533 142.574 475.349 144.545C476.164 146.516 476.58 148.629 476.574 150.761Z" fill="url(#paint13_linear)"/>
<path d="M476.574 247.625C476.574 249.75 476.154 251.854 475.338 253.817C474.522 255.779 473.326 257.562 471.819 259.062C470.311 260.562 468.522 261.751 466.554 262.559C464.586 263.368 462.477 263.781 460.349 263.774H390.021C385.732 263.774 381.618 262.073 378.584 259.044C375.551 256.016 373.847 251.908 373.847 247.625H476.574Z" fill="url(#paint14_linear)"/>
<path d="M506.385 443.058H389.374V294.861L476.22 293.852L507.719 317.288L506.385 443.058ZM393.843 438.678H502.008L503.302 319.579L474.795 298.383L393.843 299.292V438.678Z" fill="#E6B141"/>
<path d="M506.577 320.891L480.031 321.325L475.391 295.446L506.577 320.891ZM483.751 316.854L496.761 316.137L481.911 305.741L483.751 316.854Z" fill="#E6B141"/>
<path d="M486.491 327.119H413.312C411.894 327.119 410.745 328.266 410.745 329.682V329.692C410.745 331.108 411.894 332.256 413.312 332.256H486.491C487.909 332.256 489.058 331.108 489.058 329.692V329.682C489.058 328.266 487.909 327.119 486.491 327.119Z" fill="#E6B141"/>
<path d="M486.491 344.085H413.312C411.894 344.085 410.745 345.233 410.745 346.649V346.659C410.745 348.075 411.894 349.222 413.312 349.222H486.491C487.909 349.222 489.058 348.075 489.058 346.659V346.649C489.058 345.233 487.909 344.085 486.491 344.085Z" fill="#E6B141"/>
<path d="M486.491 361.052H413.312C411.894 361.052 410.745 362.199 410.745 363.615V363.625C410.745 365.041 411.894 366.189 413.312 366.189H486.491C487.909 366.189 489.058 365.041 489.058 363.625V363.615C489.058 362.199 487.909 361.052 486.491 361.052Z" fill="#E6B141"/>
<path d="M486.491 378.008H413.312C411.894 378.008 410.745 379.156 410.745 380.572V380.582C410.745 381.998 411.894 383.145 413.312 383.145H486.491C487.909 383.145 489.058 381.998 489.058 380.582V380.572C489.058 379.156 487.909 378.008 486.491 378.008Z" fill="#E6B141"/>
<path d="M486.491 394.975H413.312C411.894 394.975 410.745 396.122 410.745 397.538V397.548C410.745 398.964 411.894 400.112 413.312 400.112H486.491C487.909 400.112 489.058 398.964 489.058 397.548V397.538C489.058 396.122 487.909 394.975 486.491 394.975Z" fill="#E6B141"/>
<path d="M486.491 411.941H413.312C411.894 411.941 410.745 413.089 410.745 414.505V414.515C410.745 415.931 411.894 417.079 413.312 417.079H486.491C487.909 417.079 489.058 415.931 489.058 414.515V414.505C489.058 413.089 487.909 411.941 486.491 411.941Z" fill="#E6B141"/>
<path d="M257.605 216.357H235.285C234.785 216.354 234.307 216.154 233.954 215.8C233.602 215.447 233.404 214.968 233.404 214.469C233.404 213.971 233.602 213.494 233.955 213.142C234.308 212.79 234.786 212.592 235.285 212.592H257.605C262.233 212.589 266.671 210.751 269.943 207.483C273.215 204.214 275.053 199.782 275.053 195.161V157.705C275.053 152.295 277.205 147.107 281.037 143.282C284.868 139.456 290.065 137.307 295.483 137.307H340.195C345.167 137.304 349.935 135.331 353.451 131.82C356.967 128.31 358.944 123.549 358.947 118.584V88.3049H362.717V118.584C362.715 124.548 360.341 130.266 356.118 134.482C351.894 138.699 346.167 141.069 340.195 141.072H295.483C291.065 141.072 286.827 142.824 283.703 145.944C280.579 149.063 278.824 153.294 278.824 157.705V195.161C278.824 200.781 276.588 206.17 272.609 210.145C268.63 214.12 263.233 216.354 257.605 216.357Z" fill="#E6B141"/>
<path d="M125.391 133.098H129.161V130.898C129.153 125.501 127.003 120.328 123.181 116.512C119.358 112.695 114.177 110.548 108.772 110.54H89.1402C84.9719 110.532 80.9768 108.874 78.0303 105.931C75.0838 102.987 73.4263 98.9969 73.4209 94.8351V91.7466H69.6503V94.8351C69.6556 99.9954 71.7104 104.943 75.3641 108.593C79.0177 112.243 83.9719 114.297 89.1402 114.305H108.782C113.189 114.307 117.414 116.056 120.53 119.168C123.646 122.279 125.398 126.498 125.401 130.898L125.391 133.098Z" fill="#E6B141"/>
<path opacity="0.25" d="M463.837 162.52H388.171V213.409H463.837V162.52Z" fill="white"/>
<path d="M447.379 464.981C447.389 468.284 446.256 471.489 444.17 474.053C442.085 476.617 439.176 478.383 435.936 479.051H28.9721C25.4225 479.04 22.0031 477.715 19.3749 475.333C16.7467 472.951 15.0964 469.681 14.7431 466.154C14.3898 462.628 15.3585 459.096 17.462 456.241C19.5656 453.386 22.6544 451.412 26.1315 450.699H433.045C436.841 450.699 440.483 452.203 443.17 454.88C445.857 457.558 447.371 461.19 447.379 464.981Z" fill="url(#paint15_linear)"/>
<path d="M164.472 64.2226V120.744H211.165V60.3872C211.165 60.3872 211.64 40.8671 201.389 41.725C191.139 42.5829 168.829 37.9804 164.472 64.2226Z" fill="#E6B141"/>
<path opacity="0.69" d="M164.472 64.2226V120.744H211.165V60.3872C211.165 60.3872 211.64 40.8671 201.389 41.725C191.139 42.5829 168.829 37.9804 164.472 64.2226Z" fill="url(#paint16_linear)"/>
<path d="M211.165 120.663C211.165 120.663 241.491 121.612 250.084 135.803C258.677 149.994 270.585 185.845 270.585 185.845L259.758 190.104L240.4 165.659L211.165 120.663Z" fill="white"/>
<path d="M211.165 120.663C211.165 120.663 241.491 121.612 250.084 135.803C258.677 149.994 270.585 185.845 270.585 185.845L259.758 190.104L240.4 165.659L211.165 120.663Z" fill="url(#paint17_linear)"/>
<path d="M164.472 120.663C164.472 120.663 160.287 141.516 171.305 144.887C182.324 148.258 216.098 151.71 216.098 151.71L232.808 207.051L246.667 200.793C246.667 200.793 241.542 140.708 234.708 133.169C227.875 125.629 211.165 120.663 211.165 120.663H164.472Z" fill="white"/>
<path d="M188.207 24.6575C188.69 21.7693 189.54 18.9543 190.735 16.2802C191.951 13.9964 193.739 12.0667 195.926 10.6797C198.112 9.29275 200.622 8.49595 203.209 8.36722C203.835 8.32471 204.465 8.36886 205.079 8.49843C205.74 8.66775 206.368 8.94392 206.939 9.31598C208.348 10.2953 209.547 11.5449 210.467 12.9919C211.387 14.4388 212.009 16.0542 212.297 17.7437C212.846 21.1211 212.931 24.5576 212.55 27.958C212.297 31.6723 211.62 36.0325 208.304 37.7181C205.999 38.8788 203.249 38.2833 200.753 37.5162C200.504 37.4013 200.233 37.3418 199.959 37.3418C199.685 37.3418 199.414 37.4013 199.165 37.5162C198.991 37.6705 198.85 37.858 198.749 38.0678C198.648 38.2775 198.59 38.5052 198.579 38.7375C198.013 42.3508 199.176 46.1055 198.347 49.6582C198.294 50.0682 198.152 50.4615 197.93 50.8104C197.708 51.1592 197.412 51.4551 197.063 51.6769C196.409 51.9078 195.695 51.9078 195.041 51.6769C191.781 50.8334 188.776 49.2086 186.287 46.9432C185.276 46.0045 182.617 44.3795 182.243 43.0472C181.869 41.7149 183.78 38.8384 184.265 37.5263C185.887 33.3368 187.205 29.0361 188.207 24.6575Z" fill="url(#paint18_linear)"/>
<path opacity="0.69" d="M164.957 64.2731L179.382 91.5246L194.758 80.1597C194.758 80.1597 183.355 51.7677 181.131 50.6272C178.907 49.4866 173.438 46.0853 170.881 49.7793C168.323 53.4734 164.472 59.4385 164.957 64.2731Z" fill="url(#paint19_linear)"/>
<path d="M182.88 89.7684C182.88 89.7684 189.148 100.871 191.978 101.143C194.809 101.416 235.264 83.7932 235.264 83.7932L241.532 81.7746C241.532 81.7746 242.957 74.9516 243.24 73.5285C243.523 72.1054 245.798 67.2809 242.664 66.7056C239.53 66.1302 234.708 70.1473 234.708 70.1473L232.424 75.8398L198.256 86.3569L194.748 80.2001L182.88 89.7684Z" fill="url(#paint20_linear)"/>
<path d="M219.312 9.50777C220.738 6.25778 219.444 1.72597 216.057 0.635906C213.267 -0.272476 210.305 1.31215 207.374 1.37271C204.877 1.37271 202.491 0.363392 200.015 0.070691C197.08 -0.181206 194.151 0.611896 191.745 2.30956C189.34 4.00723 187.614 6.49993 186.873 9.34628C186.743 10.2267 186.495 11.0856 186.135 11.8998C185.124 13.7267 182.536 14.4837 182.031 16.5124C181.884 17.5099 182.024 18.5287 182.435 19.4495L185.65 29.0077C186.014 30.0776 186.833 31.3897 187.904 31.0263C188.501 30.8245 188.784 30.1583 189.006 29.5527L191.159 23.5675C193.1 23.3959 192.676 27.9076 194.606 27.6048C195.86 27.4029 195.617 25.5861 195.304 24.3144C195.162 23.4818 195.187 22.6294 195.376 21.8062C195.565 20.983 195.915 20.2053 196.407 19.5178C196.898 18.8303 197.521 18.2465 198.239 17.8C198.957 17.3535 199.756 17.0532 200.591 16.9161C201.531 16.9312 202.465 16.7774 203.351 16.4619C203.897 16.0515 204.467 15.674 205.059 15.3315C207.435 14.4433 209.952 16.4317 212.661 15.4022C215.555 14.3651 217.937 12.2539 219.312 9.50777Z" fill="#3F3D56"/>
<path d="M242.108 202.63L244.1 208.04L259.475 207.757L240.117 216.568L236.417 204.628L242.108 202.63Z" fill="#E6B141"/>
<path d="M240.824 203.346L242.826 208.746L258.191 208.464L238.833 217.275L235.133 205.335L240.824 203.346Z" fill="url(#paint21_linear)"/>
<path d="M269.159 186.43L271.151 191.83L286.527 191.548L267.168 200.359L263.468 188.419L269.159 186.43Z" fill="#E6B141"/>
<path d="M267.876 187.137L269.867 192.547L285.253 192.254L265.884 201.075L262.184 189.125L267.876 187.137Z" fill="url(#paint22_linear)"/>
</g>
<defs>
<linearGradient id="paint0_linear" x1="208.648" y1="84.9337" x2="255.351" y2="84.9337" gradientUnits="userSpaceOnUse">
<stop stop-color="#ECC4D7"/>
<stop offset="0.42" stop-color="#EFD4D1"/>
<stop offset="1" stop-color="#F2EAC9"/>
</linearGradient>
<linearGradient id="paint1_linear" x1="207.374" y1="63.3243" x2="220.748" y2="63.3243" gradientUnits="userSpaceOnUse">
<stop offset="0.02" stop-color="white" stop-opacity="0"/>
<stop offset="0.58" stop-color="white" stop-opacity="0.39"/>
<stop offset="0.68" stop-color="white" stop-opacity="0.68"/>
<stop offset="1" stop-color="white"/>
</linearGradient>
<linearGradient id="paint2_linear" x1="346.442" y1="221.999" x2="348.709" y2="275.452" gradientUnits="userSpaceOnUse">
<stop stop-opacity="0"/>
<stop offset="0.99"/>
</linearGradient>
<linearGradient id="paint3_linear" x1="5431.15" y1="75614.5" x2="53879" y2="75614.5" gradientUnits="userSpaceOnUse">
<stop stop-opacity="0"/>
<stop offset="0.99"/>
</linearGradient>
<linearGradient id="paint4_linear" x1="20464.5" y1="24175.8" x2="20258.1" y2="20763.5" gradientUnits="userSpaceOnUse">
<stop stop-opacity="0"/>
<stop offset="0.99"/>
</linearGradient>
<linearGradient id="paint5_linear" x1="33460.8" y1="23849.9" x2="33487.6" y2="21593.2" gradientUnits="userSpaceOnUse">
<stop stop-opacity="0"/>
<stop offset="0.99"/>
</linearGradient>
<linearGradient id="paint6_linear" x1="22803.4" y1="20193.1" x2="22794.6" y2="17634.9" gradientUnits="userSpaceOnUse">
<stop stop-opacity="0"/>
<stop offset="0.99"/>
</linearGradient>
<linearGradient id="paint7_linear" x1="33735.6" y1="61474.7" x2="34922.8" y2="-7013.44" gradientUnits="userSpaceOnUse">
<stop stop-opacity="0"/>
<stop offset="0.99"/>
</linearGradient>
<linearGradient id="paint8_linear" x1="23272.7" y1="19436.6" x2="23437.7" y2="23390.3" gradientUnits="userSpaceOnUse">
<stop stop-opacity="0"/>
<stop offset="0.99"/>
</linearGradient>
<linearGradient id="paint9_linear" x1="2812.71" y1="2085.27" x2="2864.25" y2="2085.27" gradientUnits="userSpaceOnUse">
<stop stop-opacity="0"/>
<stop offset="0.99"/>
</linearGradient>
<linearGradient id="paint10_linear" x1="2739" y1="2085.27" x2="2790.54" y2="2085.27" gradientUnits="userSpaceOnUse">
<stop stop-opacity="0"/>
<stop offset="0.99"/>
</linearGradient>
<linearGradient id="paint11_linear" x1="2666.15" y1="2085.27" x2="2717.76" y2="2085.27" gradientUnits="userSpaceOnUse">
<stop stop-opacity="0"/>
<stop offset="0.99"/>
</linearGradient>
<linearGradient id="paint12_linear" x1="21581.3" y1="25504.3" x2="34344.4" y2="25620.1" gradientUnits="userSpaceOnUse">
<stop stop-opacity="0"/>
<stop offset="0.99"/>
</linearGradient>
<linearGradient id="paint13_linear" x1="38957.8" y1="2482.07" x2="83569.8" y2="8701.04" gradientUnits="userSpaceOnUse">
<stop stop-opacity="0"/>
<stop offset="0.99"/>
</linearGradient>
<linearGradient id="paint14_linear" x1="48166.4" y1="4236.78" x2="48175.7" y2="5444.18" gradientUnits="userSpaceOnUse">
<stop stop-opacity="0"/>
<stop offset="0.99"/>
</linearGradient>
<linearGradient id="paint15_linear" x1="554.19" y1="491.203" x2="-260.54" y2="424.513" gradientUnits="userSpaceOnUse">
<stop stop-opacity="0"/>
<stop offset="0.41" stop-opacity="0.41"/>
<stop offset="0.99"/>
</linearGradient>
<linearGradient id="paint16_linear" x1="9854.92" y1="6823.9" x2="12011.8" y2="6823.9" gradientUnits="userSpaceOnUse">
<stop offset="0.02" stop-color="white" stop-opacity="0"/>
<stop offset="0.58" stop-color="white" stop-opacity="0.39"/>
<stop offset="0.68" stop-color="white" stop-opacity="0.68"/>
<stop offset="1" stop-color="white"/>
</linearGradient>
<linearGradient id="paint17_linear" x1="18002.7" y1="10955.5" x2="13910.6" y2="11488.6" gradientUnits="userSpaceOnUse">
<stop stop-opacity="0"/>
<stop offset="0.99"/>
</linearGradient>
<linearGradient id="paint18_linear" x1="7067.78" y1="1538.63" x2="7992.18" y2="1538.63" gradientUnits="userSpaceOnUse">
<stop stop-color="#ECC4D7"/>
<stop offset="0.42" stop-color="#EFD4D1"/>
<stop offset="1" stop-color="#F2EAC9"/>
</linearGradient>
<linearGradient id="paint19_linear" x1="6374.9" y1="3511.34" x2="7390.6" y2="3183.49" gradientUnits="userSpaceOnUse">
<stop offset="0.02" stop-color="white" stop-opacity="0"/>
<stop offset="0.58" stop-color="white" stop-opacity="0.39"/>
<stop offset="0.68" stop-color="white" stop-opacity="0.68"/>
<stop offset="1" stop-color="white"/>
</linearGradient>
<linearGradient id="paint20_linear" x1="14047.7" y1="3120" x2="17780.3" y2="3120" gradientUnits="userSpaceOnUse">
<stop stop-color="#ECC4D7"/>
<stop offset="0.42" stop-color="#EFD4D1"/>
<stop offset="1" stop-color="#F2EAC9"/>
</linearGradient>
<linearGradient id="paint21_linear" x1="5598.52" y1="3105.63" x2="6124.72" y2="3105.63" gradientUnits="userSpaceOnUse">
<stop stop-opacity="0"/>
<stop offset="0.99"/>
</linearGradient>
<linearGradient id="paint22_linear" x1="6245.23" y1="2867.67" x2="6771.43" y2="2867.67" gradientUnits="userSpaceOnUse">
<stop stop-opacity="0"/>
<stop offset="0.99"/>
</linearGradient>
<clipPath id="clip0">
<rect width="518" height="479" fill="white"/>
</clipPath>
</defs>
</svg>
